<svg width="32" height="32" viewBox="0 0 32 32" fill="none" xmlns="http://www.w3.org/2000/svg">
<path d="M25.5 24H24.75V13.375C24.75 8.96562 21.4906 5.31875 17.25 4.7125V3.5C17.25 2.80938 16.6906 2.25 16 2.25C15.3094 2.25 14.75 2.80938 14.75 3.5V4.7125C10.5094 5.31875 7.25 8.96562 7.25 13.375V24H6.5C5.94687 24 5.5 24.4469 5.5 25V26C5.5 26.1375 5.6125 26.25 5.75 26.25H12.5C12.5 28.1813 14.0688 29.75 16 29.75C17.9313 29.75 19.5 28.1813 19.5 26.25H26.25C26.3875 26.25 26.5 26.1375 26.5 26V25C26.5 24.4469 26.0531 24 25.5 24ZM16 27.75C15.1719 27.75 14.5 27.0781 14.5 26.25H17.5C17.5 27.0781 16.8281 27.75 16 27.75Z" fill="#1A1A1A"/>
</svg>
