<svg width="32" height="32" viewBox="0 0 32 32" fill="none" xmlns="http://www.w3.org/2000/svg">
<path fill-rule="evenodd" clip-rule="evenodd" d="M16 2C23.7313 2 30 8.26875 30 16C30 23.7313 23.7313 30 16 30C8.26875 30 2 23.7313 2 16C2 8.26875 8.26875 2 16 2ZM19.9993 10.5881C19.9986 10.5883 19.9969 10.5889 19.9957 10.5902L16 14.5858L12.0044 10.5902C12.0031 10.5889 12.0025 10.5885 12.0018 10.5883C12.001 10.5881 12.0025 10.5881 12.0018 10.5883C12.0011 10.5885 11.9983 10.5889 11.997 10.5902L10.5901 11.997C10.5889 11.9983 10.5886 11.9989 10.5883 11.9996C10.5881 11.9989 10.5881 12.0003 10.5883 11.9996L10.5886 12.0025C10.589 12.0032 10.5896 12.0038 10.5902 12.0043L14.5858 16L10.5902 19.9957C10.5889 19.9969 10.5885 19.9976 10.5883 19.9983C10.5881 19.9976 10.5881 19.999 10.5883 19.9983C10.5885 19.999 10.5889 20.0018 10.5902 20.003L11.997 21.4099C11.9983 21.4112 11.9989 21.4115 11.9996 21.4117C11.9989 21.4119 12.0003 21.4119 11.9996 21.4117C12.0003 21.4115 12.0031 21.4112 12.0043 21.4099L16 17.4142L19.9957 21.4098C19.9969 21.4111 19.9976 21.4115 19.9983 21.4117C19.9976 21.4119 19.999 21.4119 19.9983 21.4117C19.999 21.4115 20.0018 21.4111 20.003 21.4098L21.4099 20.003C21.4112 20.0018 21.4115 20.0011 21.4117 20.0004C21.4119 19.9997 21.4119 20.0011 21.4117 20.0004L21.4114 19.9975C21.411 19.9968 21.4105 19.9962 21.4099 19.9957L17.4142 16L21.4098 12.0044C21.4111 12.0031 21.4115 12.0025 21.4117 12.0018C21.4119 12.001 21.4119 12.0025 21.4117 12.0018C21.4115 12.0011 21.4111 11.9983 21.4098 11.997L20.003 10.5901C20.0023 10.5893 20.0003 10.5885 19.9993 10.5881C20 10.5879 19.9986 10.5879 19.9993 10.5881Z" fill="#333333"/>
</svg>
