<svg width="32" height="32" viewBox="0 0 32 32" fill="none" xmlns="http://www.w3.org/2000/svg">
<path d="M17.9062 13.1563C17.1844 13.1563 16.625 13.7156 16.625 14.4063C16.625 15.0969 17.1844 15.6563 17.9062 15.6563C18.5656 15.6563 19.125 15.0969 19.125 14.4063C19.125 13.7156 18.5656 13.1563 17.9062 13.1563ZM9.15625 13.1563C8.43437 13.1563 7.875 13.7156 7.875 14.4063C7.875 15.0969 8.43437 15.6563 9.15625 15.6563C9.81562 15.6563 10.375 15.0969 10.375 14.4063C10.375 13.7156 9.81562 13.1563 9.15625 13.1563Z" fill="#333333"/>
<path d="M27.9374 10.7813C26.4342 8.71876 24.3342 7.34063 22.0311 6.71876V6.72188C21.4967 6.12813 20.8936 5.58126 20.2186 5.09376C15.103 1.37501 7.92173 2.50938 4.18736 7.62501C1.17798 11.7813 1.30611 17.3719 4.37486 21.3438L4.39986 25.4875C4.39986 25.5875 4.41548 25.6875 4.44673 25.7813C4.61236 26.3094 5.17486 26.6 5.69986 26.4344L9.65611 25.1875C10.703 25.5594 11.7842 25.7719 12.8592 25.8313L12.8436 25.8438C15.628 27.8719 19.278 28.4813 22.6249 27.375L26.5967 28.6688C26.6967 28.7 26.7999 28.7188 26.9061 28.7188C27.4592 28.7188 27.9061 28.2719 27.9061 27.7188V23.5313C30.6592 19.7938 30.7311 14.6281 27.9374 10.7813ZM10.0936 22.9688L9.71861 22.8125L6.62486 23.7813L6.59361 20.5313L6.34361 20.25C3.69986 17.025 3.52486 12.3781 5.99986 8.96876C9.01236 4.83751 14.7874 3.92501 18.9061 6.90626C23.0374 9.90938 23.953 15.675 20.9686 19.7813C18.4655 23.2156 13.9842 24.4844 10.0936 22.9688ZM25.8749 22.4375L25.6249 22.75L25.6561 26L22.5936 24.9688L22.2186 25.125C20.4686 25.775 18.603 25.8281 16.8749 25.3438L16.8686 25.3406C19.178 24.6313 21.2717 23.1938 22.7811 21.125C25.1686 17.8344 25.5561 13.7 24.1686 10.175L24.1874 10.1875C24.9061 10.7031 25.5655 11.3469 26.1249 12.125C28.3936 15.2375 28.2655 19.475 25.8749 22.4375Z" fill="#333333"/>
<path d="M13.5312 13.1563C12.8094 13.1563 12.25 13.7156 12.25 14.4063C12.25 15.0969 12.8094 15.6563 13.5312 15.6563C14.1906 15.6563 14.75 15.0969 14.75 14.4063C14.75 13.7156 14.1906 13.1563 13.5312 13.1563Z" fill="#333333"/>
</svg>
