<svg width="41" height="41" viewBox="0 0 41 41" fill="none" xmlns="http://www.w3.org/2000/svg">
<path d="M22.9423 16.8565C22.0174 16.8565 21.3007 17.5732 21.3007 18.458C21.3007 19.3429 22.0174 20.0596 22.9423 20.0596C23.7871 20.0596 24.5038 19.3429 24.5038 18.458C24.5038 17.5732 23.7871 16.8565 22.9423 16.8565ZM11.7313 16.8565C10.8064 16.8565 10.0897 17.5732 10.0897 18.458C10.0897 19.3429 10.8064 20.0596 11.7313 20.0596C12.5762 20.0596 13.2929 19.3429 13.2929 18.458C13.2929 17.5732 12.5762 16.8565 11.7313 16.8565Z" fill="#4A6635"/>
<path d="M35.7946 13.8135C33.8688 11.1709 31.1781 9.4052 28.2272 8.60842V8.61242C27.5426 7.85168 26.7698 7.151 25.905 6.52639C19.3506 1.76174 10.1496 3.21516 5.36494 9.76955C1.50918 15.0947 1.67334 22.2577 5.60518 27.3467L5.63721 32.6559C5.63721 32.784 5.65723 32.9121 5.69727 33.0322C5.90948 33.7089 6.63018 34.0813 7.30283 33.8691L12.3718 32.2715C13.7131 32.748 15.0984 33.0202 16.4758 33.0963L16.4558 33.1123C20.0232 35.7109 24.6998 36.4916 28.988 35.0742L34.077 36.7319C34.2051 36.7719 34.3372 36.7959 34.4733 36.7959C35.182 36.7959 35.7546 36.2234 35.7546 35.5147V30.1494C39.282 25.3608 39.3741 18.7423 35.7946 13.8135ZM12.9323 29.4287L12.4519 29.2285L8.48799 30.4697L8.44795 26.3057L8.12764 25.9453C4.74033 21.8133 4.51612 15.8595 7.68721 11.4912C11.547 6.19807 18.9462 5.02893 24.2233 8.84865C29.5165 12.6964 30.6897 20.0836 26.8659 25.3447C23.6588 29.745 17.9172 31.3706 12.9323 29.4287ZM33.1521 28.7481L32.8317 29.1485L32.8718 33.3125L28.948 31.9912L28.4675 32.1914C26.2253 33.0242 23.835 33.0923 21.6208 32.4717L21.6128 32.4677C24.5717 31.5588 27.2543 29.717 29.1882 27.0664C32.2472 22.8503 32.7437 17.5531 30.9659 13.0367L30.9899 13.0528C31.9108 13.7134 32.7557 14.5382 33.4724 15.5352C36.3792 19.5231 36.215 24.9524 33.1521 28.7481Z" fill="#4A6635"/>
<path d="M17.3368 16.8565C16.4119 16.8565 15.6952 17.5732 15.6952 18.458C15.6952 19.3429 16.4119 20.0596 17.3368 20.0596C18.1816 20.0596 18.8983 19.3429 18.8983 18.458C18.8983 17.5732 18.1816 16.8565 17.3368 16.8565Z" fill="#4A6635"/>
</svg>
