<svg width="32" height="32" viewBox="0 0 32 32" fill="none" xmlns="http://www.w3.org/2000/svg">
<path d="M2.94491 5.30504C3.09491 5.00004 3.42491 4.82504 3.75991 4.87004L15.9999 6.40004L28.2399 4.87004C28.5749 4.83004 28.9049 5.00504 29.0549 5.30504L31.1399 9.47504C31.5899 10.37 31.1099 11.455 30.1499 11.73L21.9799 14.065C21.2849 14.265 20.5399 13.97 20.1699 13.35L15.9999 6.40004L11.8299 13.35C11.4599 13.97 10.7149 14.265 10.0199 14.065L1.85491 11.73C0.889906 11.455 0.414906 10.37 0.864906 9.47504L2.94491 5.30504ZM16.0549 9.60004L18.7999 14.17C19.5449 15.41 21.0299 16 22.4249 15.6L28.7999 13.78V22.13C28.7999 23.23 28.0499 24.19 26.9799 24.46L16.7749 27.01C16.2649 27.14 15.7299 27.14 15.2249 27.01L5.01991 24.46C3.94991 24.185 3.19991 23.225 3.19991 22.125V13.775L9.57991 15.6C10.9699 16 12.4599 15.41 13.2049 14.17L15.9449 9.60004H16.0549Z" fill="#4A6635"/>
</svg>
