<svg width="32" height="32" viewBox="0 0 32 32" fill="none" xmlns="http://www.w3.org/2000/svg">
<path d="M2.945 5.30499C3.095 4.99999 3.425 4.82499 3.76 4.86999L16 6.39999L28.24 4.86999C28.575 4.82999 28.905 5.00499 29.055 5.30499L31.14 9.47499C31.59 10.37 31.11 11.455 30.15 11.73L21.98 14.065C21.285 14.265 20.54 13.97 20.17 13.35L16 6.39999L11.83 13.35C11.46 13.97 10.715 14.265 10.02 14.065L1.855 11.73C0.889997 11.455 0.414997 10.37 0.864997 9.47499L2.945 5.30499ZM16.055 9.59999L18.8 14.17C19.545 15.41 21.03 16 22.425 15.6L28.8 13.78V22.13C28.8 23.23 28.05 24.19 26.98 24.46L16.775 27.01C16.265 27.14 15.73 27.14 15.225 27.01L5.02 24.46C3.95 24.185 3.2 23.225 3.2 22.125V13.775L9.58 15.6C10.97 16 12.46 15.41 13.205 14.17L15.945 9.59999H16.055Z" fill="black"/>
</svg>
