<svg width="32" height="32" viewBox="0 0 32 32" fill="none" xmlns="http://www.w3.org/2000/svg">
<path d="M31.9889 15.9722C31.9889 16.9722 31.1556 17.7555 30.2111 17.7555H28.4333L28.4722 26.6555C28.4722 26.8055 28.4611 26.9555 28.4444 27.1055V28C28.4444 29.2278 27.45 30.2222 26.2222 30.2222H25.3333C25.2722 30.2222 25.2111 30.2222 25.15 30.2167C25.0722 30.2222 24.9944 30.2222 24.9167 30.2222H23.1111H21.7778C20.55 30.2222 19.5556 29.2278 19.5556 28V26.6667V23.1111C19.5556 22.1278 18.7611 21.3333 17.7778 21.3333H14.2222C13.2389 21.3333 12.4444 22.1278 12.4444 23.1111V26.6667V28C12.4444 29.2278 11.45 30.2222 10.2222 30.2222H8.88889H7.11667C7.03333 30.2222 6.95 30.2167 6.86667 30.2111C6.8 30.2167 6.73333 30.2222 6.66667 30.2222H5.77778C4.55 30.2222 3.55556 29.2278 3.55556 28V21.7778C3.55556 21.7278 3.55556 21.6722 3.56111 21.6222V17.7555H1.77778C0.777778 17.7555 0 16.9778 0 15.9722C0 15.4722 0.166667 15.0278 0.555556 14.6389L14.8 2.22222C15.1889 1.83333 15.6333 1.77777 16.0222 1.77777C16.4111 1.77777 16.8556 1.88888 17.1889 2.16666L31.3778 14.6389C31.8222 15.0278 32.0444 15.4722 31.9889 15.9722Z" fill="black"/>
</svg>
