<svg width="30" height="30" viewBox="0 0 30 30" fill="none" xmlns="http://www.w3.org/2000/svg">
<path d="M25.0371 8.45801L18.7324 2.15039C18.5566 1.97461 18.3164 1.875 18.0674 1.875H5.625C5.10645 1.875 4.6875 2.29395 4.6875 2.8125V27.1875C4.6875 27.7061 5.10645 28.125 5.625 28.125H24.375C24.8936 28.125 25.3125 27.7061 25.3125 27.1875V9.12012C25.3125 8.87109 25.2129 8.63379 25.0371 8.45801ZM11.7188 11.7773C12.3662 11.7773 12.8906 12.3018 12.8906 12.9492C12.8906 13.5967 12.3662 14.1211 11.7188 14.1211C11.0713 14.1211 10.5469 13.5967 10.5469 12.9492C10.5469 12.3018 11.0713 11.7773 11.7188 11.7773ZM20.3906 20.3906H9.60938C9.41309 20.3906 9.30469 20.165 9.42481 20.0127L12.3486 16.2861C12.3706 16.2581 12.3986 16.2355 12.4305 16.2199C12.4625 16.2043 12.4976 16.1962 12.5332 16.1962C12.5688 16.1962 12.6039 16.2043 12.6359 16.2199C12.6678 16.2355 12.6959 16.2581 12.7178 16.2861L13.9219 17.8213L16.2012 14.915C16.2231 14.887 16.2511 14.8644 16.2831 14.8488C16.3151 14.8332 16.3502 14.8251 16.3857 14.8251C16.4213 14.8251 16.4564 14.8332 16.4884 14.8488C16.5204 14.8644 16.5484 14.887 16.5703 14.915L20.5693 20.0127C20.6953 20.165 20.584 20.3906 20.3906 20.3906ZM17.6367 9.55078V4.03711L23.1504 9.55078H17.6367Z" fill="#4A6635"/>
</svg>
