<svg width="32" height="32" viewBox="0 0 32 32" fill="none" xmlns="http://www.w3.org/2000/svg">
<path d="M27.6625 13.9468L27.6562 13.9218L24.15 5.01239C23.9937 4.50927 23.5281 4.16239 23 4.16239H8.78745C8.2562 4.16239 7.78433 4.51552 7.63433 5.02489L4.3562 13.8436L4.34683 13.8655L4.34058 13.8905C4.29995 14.0436 4.28745 14.1999 4.30933 14.353C4.3062 14.403 4.30308 14.453 4.30308 14.503V25.9374C4.3039 26.4411 4.50435 26.9238 4.86049 27.28C5.21663 27.6361 5.69942 27.8366 6.20308 27.8374H25.8031C26.85 27.8374 27.7031 26.9843 27.7062 25.9374V14.503C27.7062 14.4624 27.7062 14.4218 27.7031 14.3874C27.7156 14.2343 27.7031 14.0874 27.6625 13.9468ZM18.4187 12.603L18.4093 13.0936C18.3843 14.4968 17.4156 15.4405 16 15.4405C15.3093 15.4405 14.7156 15.2186 14.2875 14.7968C13.8593 14.3749 13.625 13.7874 13.6125 13.0936L13.6031 12.603H7.17183L9.6562 6.56239H22.1312L24.6843 12.603H18.4187ZM6.69995 15.003H11.6156C12.375 16.7874 13.9906 17.8405 16.0031 17.8405C17.0562 17.8405 18.0343 17.5468 18.825 16.9905C19.5187 16.503 20.0593 15.8218 20.4093 15.003H25.3V25.4374H6.69995V15.003Z" fill="#333333"/>
</svg>
