<svg width="30" height="30" viewBox="0 0 30 30" fill="none" xmlns="http://www.w3.org/2000/svg">
<g clip-path="url(#clip0_75_221)">
<path d="M15 30C12.9756 30 11.0098 29.6045 9.16113 28.8223C7.37402 28.0664 5.77148 26.9824 4.39453 25.6055C3.01758 24.2285 1.93359 22.626 1.17773 20.8389C0.395508 18.9902 0 17.0244 0 15C0 14.417 0.47168 13.9453 1.05469 13.9453C1.6377 13.9453 2.10938 14.417 2.10938 15C2.10938 16.7402 2.44922 18.4277 3.12305 20.0186C3.77344 21.5537 4.70215 22.9336 5.88574 24.1172C7.06934 25.3008 8.44922 26.2324 9.98437 26.8799C11.5723 27.5508 13.2598 27.8906 15 27.8906C16.7402 27.8906 18.4277 27.5508 20.0186 26.877C21.5537 26.2266 22.9336 25.2978 24.1172 24.1143C25.3008 22.9307 26.2324 21.5508 26.8799 20.0156C27.5508 18.4277 27.8906 16.7402 27.8906 15C27.8906 13.2598 27.5508 11.5723 26.877 9.98145C26.2288 8.44998 25.2907 7.05824 24.1143 5.88281C22.9401 4.70483 21.5481 3.76651 20.0156 3.12012C18.4277 2.44922 16.7402 2.10938 15 2.10938C14.417 2.10938 13.9453 1.6377 13.9453 1.05469C13.9453 0.47168 14.417 0 15 0C17.0244 0 18.9902 0.395508 20.8389 1.17773C22.626 1.93359 24.2285 3.01758 25.6055 4.39453C26.9824 5.77148 28.0635 7.37695 28.8193 9.16113C29.6016 11.0098 29.9971 12.9756 29.9971 15C29.9971 17.0244 29.6016 18.9902 28.8193 20.8389C28.0664 22.626 26.9824 24.2285 25.6055 25.6055C24.2285 26.9824 22.623 28.0635 20.8389 28.8193C18.9902 29.6045 17.0244 30 15 30Z" fill="#333333"/>
</g>
<defs>
<clipPath id="clip0_75_221">
<rect width="30" height="30" fill="white"/>
</clipPath>
</defs>
</svg>
