<svg width="30" height="30" viewBox="0 0 30 30" fill="none" xmlns="http://www.w3.org/2000/svg">
<path d="M24.375 13.5938H22.3828V7.03125C22.3828 4.95996 20.7041 3.28125 18.6328 3.28125H11.3672C9.2959 3.28125 7.61719 4.95996 7.61719 7.03125V13.5938H5.625C5.10645 13.5938 4.6875 14.0127 4.6875 14.5312V25.7812C4.6875 26.2998 5.10645 26.7188 5.625 26.7188H24.375C24.8936 26.7188 25.3125 26.2998 25.3125 25.7812V14.5312C25.3125 14.0127 24.8936 13.5938 24.375 13.5938ZM9.72656 7.03125C9.72656 6.12598 10.4619 5.39062 11.3672 5.39062H18.6328C19.5381 5.39062 20.2734 6.12598 20.2734 7.03125V13.5938H9.72656V7.03125ZM23.2031 24.6094H6.79688V15.7031H23.2031V24.6094Z" fill="black"/>
<path d="M6.79688 24.6094H23.2031V15.7031H6.79688V24.6094ZM15 17.9883C15.2976 17.9884 15.5876 18.0829 15.8281 18.2582C16.0686 18.4335 16.2473 18.6806 16.3385 18.9639C16.4297 19.2472 16.4287 19.5522 16.3355 19.8349C16.2424 20.1176 16.062 20.3634 15.8203 20.5371V22.0898C15.8203 22.2188 15.7148 22.3242 15.5859 22.3242H14.4141C14.2852 22.3242 14.1797 22.2188 14.1797 22.0898V20.5371C13.938 20.3634 13.7576 20.1176 13.6645 19.8349C13.5713 19.5522 13.5703 19.2472 13.6615 18.9639C13.7527 18.6806 13.9314 18.4335 14.1719 18.2582C14.4124 18.0829 14.7024 17.9884 15 17.9883Z" fill="black" fill-opacity="0.15"/>
<path d="M14.1797 20.5371V22.0898C14.1797 22.2187 14.2851 22.3242 14.4141 22.3242H15.5859C15.7148 22.3242 15.8203 22.2187 15.8203 22.0898V20.5371C16.0621 20.3635 16.2426 20.1176 16.3358 19.8348C16.429 19.5521 16.4301 19.247 16.3389 18.9636C16.2477 18.6802 16.0689 18.4331 15.8283 18.2578C15.5877 18.0824 15.2977 17.988 15 17.988C14.7023 17.988 14.4122 18.0824 14.1716 18.2578C13.931 18.4331 13.7523 18.6802 13.6611 18.9636C13.5699 19.247 13.5709 19.5521 13.6641 19.8348C13.7573 20.1176 13.9378 20.3635 14.1797 20.5371Z" fill="black"/>
</svg>
