<svg width="20" height="20" viewBox="0 0 20 20" fill="none" xmlns="http://www.w3.org/2000/svg">
<path d="M9.41406 2.96875H10.5859C10.6901 2.96875 10.7422 3.02083 10.7422 3.125V16.875C10.7422 16.9792 10.6901 17.0312 10.5859 17.0312H9.41406C9.3099 17.0312 9.25781 16.9792 9.25781 16.875V3.125C9.25781 3.02083 9.3099 2.96875 9.41406 2.96875Z" fill="#F5F5F5"/>
<path d="M16.875 9.25781C16.9792 9.25781 17.0312 9.3099 17.0312 9.41406V10.5859C17.0312 10.6901 16.9792 10.7422 16.875 10.7422H3.125C3.02083 10.7422 2.96875 10.6901 2.96875 10.5859V9.41406C2.96875 9.3099 3.02083 9.25781 3.125 9.25781H16.875Z" fill="#F5F5F5"/>
</svg>
