<svg width="32" height="32" viewBox="0 0 32 32" fill="none" xmlns="http://www.w3.org/2000/svg">
<path d="M12.5 9.92804H14.8094V20.4999C14.8094 20.6374 14.9219 20.7499 15.0594 20.7499H16.9344C17.0719 20.7499 17.1844 20.6374 17.1844 20.4999V9.92804H19.5C19.7094 9.92804 19.825 9.68741 19.6969 9.52491L16.1969 5.09366C16.1735 5.06378 16.1436 5.03962 16.1095 5.023C16.0754 5.00638 16.0379 4.99774 16 4.99774C15.9621 4.99774 15.9246 5.00638 15.8905 5.023C15.8564 5.03962 15.8265 5.06378 15.8031 5.09366L12.3031 9.52179C12.175 9.68741 12.2906 9.92804 12.5 9.92804ZM27.4375 19.5624H25.5625C25.425 19.5624 25.3125 19.6749 25.3125 19.8124V24.6249H6.6875V19.8124C6.6875 19.6749 6.575 19.5624 6.4375 19.5624H4.5625C4.425 19.5624 4.3125 19.6749 4.3125 19.8124V25.9999C4.3125 26.553 4.75937 26.9999 5.3125 26.9999H26.6875C27.2406 26.9999 27.6875 26.553 27.6875 25.9999V19.8124C27.6875 19.6749 27.575 19.5624 27.4375 19.5624Z" fill="#333333"/>
</svg>
