<svg width="31" height="27" viewBox="0 0 31 27" fill="none" xmlns="http://www.w3.org/2000/svg">
<path d="M28.7968 0.512702C28.5015 -0.14639 27.6579 -0.172753 27.3046 0.449429C25.67 3.29143 22.7437 5.06307 19.4008 5.06307H15.1826C9.59348 5.06307 5.05894 9.59762 5.05894 15.1867C5.05894 15.5558 5.10112 15.9091 5.13803 16.2676C8.50203 13.858 13.3582 11.8122 20.2444 11.8122C20.7084 11.8122 21.088 12.1918 21.088 12.6558C21.088 13.1198 20.7084 13.4994 20.2444 13.4994C6.98876 13.4994 1.36803 21.6247 0.123661 24.6776C-0.22434 25.5371 0.186933 26.5178 1.04639 26.8711C1.91112 27.2296 2.89184 26.8131 3.25039 25.9589C3.32948 25.7691 4.35239 23.4333 7.04148 21.1818C8.74985 23.4965 11.9978 25.7058 16.2635 25.2524C24.5417 24.6513 30.368 17.2273 30.368 8.13707C30.368 5.49016 29.7986 2.74834 28.7968 0.512702Z" fill="black"/>
</svg>
